<svg xmlns="http://www.w3.org/2000/svg" width="68" height="122" viewBox="0 0 68 122" version="1.1"><path d="M 22.882 1.323 C 12.674 5.132, 5.008 12.997, 1.995 22.752 C 0.190 28.597, 0.002 32.027, 0.020 58.855 C 0.031 75.160, 0.492 91.630, 1.045 95.455 C 2.623 106.375, 8.853 115.183, 17.989 119.412 C 21.803 121.177, 24.431 121.500, 35 121.500 C 46.661 121.500, 47.845 121.318, 52.638 118.790 C 55.464 117.299, 59.411 114.169, 61.410 111.834 C 67.874 104.283, 68.262 101.683, 68.756 62.648 C 69.066 38.126, 68.871 27.471, 68.098 26.698 C 67.494 26.094, 66.990 24.452, 66.978 23.050 C 66.916 15.863, 59.997 7.731, 50.046 3.149 C 43.328 0.056, 28.882 -0.915, 22.882 1.323 M 0.446 59.500 C 0.447 77.100, 0.583 84.159, 0.749 75.187 C 0.914 66.215, 0.914 51.815, 0.748 43.187 C 0.581 34.559, 0.446 41.900, 0.446 59.500" stroke="none" fill="#ff0404" fill-rule="evenodd"/><path d="" stroke="none" fill="#fc0404" fill-rule="evenodd"/></svg>