<svg xmlns="http://www.w3.org/2000/svg" width="68" height="122" viewBox="0 0 68 122" version="1.1"><path d="M 20.853 2.370 C 12.063 5.986, 9 8.824, 3.114 18.807 L 0 24.088 0 61.198 L 0 98.308 3.423 104.404 C 10.242 116.549, 17.706 121.145, 31.677 121.801 C 42.590 122.314, 49.087 120.632, 56.225 115.448 C 61.236 111.809, 66.975 103.144, 66.991 99.191 C 66.996 97.908, 67.444 97.157, 68 97.500 C 68.660 97.908, 69 85.214, 69 60.169 L 69 22.220 64.519 16.133 C 54.035 1.891, 35.908 -3.822, 20.853 2.370 M 24.370 7.858 C 13.927 11.743, 14.394 11.940, 34 11.923 L 52.500 11.907 47.500 9.304 C 40.772 5.802, 31.461 5.220, 24.370 7.858 M 9.039 20.923 L 7.038 24.846 20.519 25.173 C 27.934 25.353, 40.066 25.353, 47.481 25.173 L 60.962 24.846 58.961 20.923 L 56.959 17 34 17 L 11.041 17 9.039 20.923 M 0.454 61 C 0.454 82.175, 0.587 90.838, 0.749 80.250 C 0.911 69.663, 0.911 52.338, 0.749 41.750 C 0.587 31.163, 0.454 39.825, 0.454 61 M 7 35.500 L 7 40 34 40 L 61 40 61 35.500 L 61 31 34 31 L 7 31 7 35.500 M 7 50 L 7 54 34 54 L 61 54 61 50 L 61 46 34 46 L 7 46 7 50 M 7 63 L 7 67 34 67 L 61 67 61 63 L 61 59 34 59 L 7 59 7 63 M 7 76 L 7 80 34 80 L 61 80 61 76 L 61 72 34 72 L 7 72 7 76 M 7 89.500 L 7 94 34 94 L 61 94 61 89.500 L 61 85 34 85 L 7 85 7 89.500 M 8 99.632 C 8 99.980, 8.937 101.780, 10.082 103.632 L 12.163 107 34.096 107 L 56.029 107 58.011 103.750 C 59.101 101.963, 59.994 100.162, 59.996 99.750 C 59.998 99.338, 48.300 99, 34 99 C 19.700 99, 8 99.284, 8 99.632 M 20.578 112.874 C 19.930 113.923, 30.401 117, 34.621 117 C 37.477 117, 50 113.261, 50 112.408 C 50 111.576, 21.098 112.033, 20.578 112.874" stroke="none" fill="#ff0404" fill-rule="evenodd"/><path d="" stroke="none" fill="#fc0404" fill-rule="evenodd"/></svg>