<svg xmlns="http://www.w3.org/2000/svg" width="69" height="121" viewBox="0 0 69 121" version="1.1"><path d="M 7.566 1.582 C -1.948 5.066, -2.203 8.582, 6.015 22.981 C 9.304 28.745, 12.280 34.977, 12.628 36.830 C 13.846 43.325, 12.269 51.389, 7.218 64.500 C 1.436 79.507, -0.400 87.303, 0.580 92.685 C 3.738 110.028, 20.381 121, 43.529 121 C 54.568 121, 62.215 118.938, 66.290 114.864 C 70.320 110.834, 69.685 106.947, 63.105 95.376 C 60.232 90.321, 57.452 83.889, 56.802 80.791 C 55.559 74.864, 55.633 74.536, 62.089 57.500 C 65.112 49.524, 65.429 32.196, 62.696 24.344 C 59.289 14.553, 47.094 5.343, 32.505 1.543 C 25.189 -0.362, 12.822 -0.343, 7.566 1.582" stroke="none" fill="#ff0404" fill-rule="evenodd"/><path d="" stroke="none" fill="#fc0404" fill-rule="evenodd"/></svg>