<svg xmlns="http://www.w3.org/2000/svg" width="68" height="121" viewBox="0 0 68 121" version="1.1"><path d="M 20.302 2.045 C 14.046 4.519, 6.126 11.404, 2.586 17.443 L 0 21.856 0 60.732 L 0 99.608 2.828 104.068 C 6.850 110.411, 14.280 116.586, 20.853 119.051 C 29.215 122.186, 42.366 121.560, 50 117.664 C 56.747 114.220, 60.062 111.179, 65.105 103.805 L 69 98.110 68.864 58.805 C 68.789 37.187, 68.526 20.564, 68.279 21.864 C 67.891 23.911, 67.518 23.552, 65.498 19.193 C 62.546 12.822, 56.406 6.835, 49.216 3.317 C 41.532 -0.442, 28.086 -1.034, 20.302 2.045 M 25.718 9.437 C 20.143 11.426, 15.322 14.992, 12.234 19.413 L 9.500 23.325 9.202 58.127 C 8.997 82.016, 9.263 94.273, 10.050 97.215 C 10.804 100.035, 12.666 102.914, 15.496 105.636 C 28.249 117.900, 50.067 114.152, 57.031 98.500 C 58.508 95.182, 58.924 90.325, 59.475 70 C 60.271 40.603, 59.227 25.956, 55.918 20.067 C 50.565 10.543, 36.497 5.591, 25.718 9.437 M 0.456 60.500 C 0.456 82.500, 0.588 91.358, 0.749 80.183 C 0.910 69.009, 0.910 51.009, 0.749 40.183 C 0.587 29.358, 0.455 38.500, 0.456 60.500" stroke="none" fill="#ff0404" fill-rule="evenodd"/><path d="" stroke="none" fill="#fc0404" fill-rule="evenodd"/></svg>