<svg xmlns="http://www.w3.org/2000/svg" width="67" height="122" viewBox="0 0 67 122" version="1.1"><path d="M 8.500 1.162 C 4.204 3.528, 0 8.409, 0 11.031 C 0 12.482, 2.305 17.457, 5.123 22.085 C 15.519 39.162, 15.540 42.568, 5.424 71 C -1.036 89.158, 0.329 100.499, 10.118 109.999 C 15.089 114.822, 21.113 118.105, 29.437 120.525 C 37.376 122.833, 51.624 122.220, 58.149 119.289 C 68.896 114.464, 69.584 109.986, 61.948 94.584 C 54.878 80.322, 54.601 76.562, 59.580 62.396 C 63.148 52.248, 63.414 50.710, 63.455 40 C 63.507 26.347, 62.191 22.632, 54.215 13.917 C 48.196 7.341, 39.827 2.600, 31.566 1.087 C 23.969 -0.305, 11.088 -0.263, 8.500 1.162 M 14.699 6.932 C 12.609 7.355, 10.381 8.219, 9.749 8.851 C 8.884 9.716, 12.043 9.980, 22.550 9.918 C 34.928 9.846, 36.162 9.690, 33.500 8.533 C 29.561 6.820, 19.486 5.962, 14.699 6.932 M 10.085 17.160 C 12.074 20.876, 15.041 21.462, 33.750 21.831 C 44.734 22.047, 52 21.816, 52 21.250 C 52 20.733, 51.089 19.486, 49.977 18.479 C 48.325 16.984, 45.889 16.586, 36.727 16.310 C 30.552 16.125, 21.816 15.837, 17.313 15.669 C 9.700 15.386, 9.192 15.491, 10.085 17.160 M 19.750 28.689 C 17.428 29.296, 17.534 31.534, 20 34 C 21.843 35.843, 23.333 36, 39 36 L 56 36 56 32 L 56 28 38.750 28.116 C 29.262 28.180, 20.712 28.438, 19.750 28.689 M 21 45.500 L 21 49 38.500 49 L 56 49 56 45.500 L 56 42 38.500 42 L 21 42 21 45.500 M 18.201 57.321 C 17.540 59.148, 17 60.948, 17 61.321 C 17 61.694, 24.580 62, 33.845 62 C 48.894 62, 50.866 61.805, 52.345 60.171 C 54.653 57.621, 54.408 55.343, 51.750 54.630 C 50.513 54.299, 42.728 54.021, 34.451 54.014 L 19.402 54 18.201 57.321 M 14.895 68.649 C 14.012 68.892, 12.682 70.225, 11.941 71.611 C 10.793 73.756, 10.808 74.267, 12.046 75.050 C 13.777 76.145, 44.980 76.300, 46.675 75.222 C 47.321 74.811, 47.996 73.130, 48.175 71.487 L 48.500 68.500 32.500 68.354 C 23.700 68.274, 15.778 68.407, 14.895 68.649 M 9 86 L 9 90 30.107 90 C 48.943 90, 51.149 89.830, 50.607 88.418 C 50.273 87.548, 50 86.455, 50 85.990 C 50 85.524, 49.293 84.436, 48.429 83.571 C 47.111 82.254, 43.803 82, 27.929 82 L 9 82 9 86 M 11 100 L 13.041 104 36.084 104 L 59.128 104 56.880 100 L 54.632 96 31.796 96 L 8.959 96 11 100 M 23.483 110.973 C 24.554 112.706, 37.060 116, 42.568 116 C 47.766 116, 58.364 112.837, 59.540 110.935 C 59.891 110.368, 52.798 110, 41.500 110 C 29.689 110, 23.102 110.356, 23.483 110.973" stroke="none" fill="#ff0404" fill-rule="evenodd"/><path d="" stroke="none" fill="#fc0404" fill-rule="evenodd"/></svg>