<svg xmlns="http://www.w3.org/2000/svg" width="70" height="124" viewBox="0 0 70 124" version="1.1"><path d="M 11.267 1.114 C 9.488 1.628, 6.226 3.768, 4.017 5.869 C -1.436 11.056, -1.409 14.516, 4.151 23.095 C 14.158 38.535, 14.490 44.008, 6.775 66.361 C 2.002 80.189, 1.547 82.279, 1.525 90.500 C 1.502 98.632, 1.786 100.017, 4.466 104.855 C 11.828 118.146, 26.521 124.705, 46.881 123.790 C 58.128 123.284, 65.047 120.611, 68.111 115.586 C 71.234 110.464, 70.554 106.432, 64.975 96.998 C 62.211 92.324, 59.239 86.086, 58.371 83.136 L 56.792 77.772 61.091 65.136 C 65.191 53.086, 65.393 51.943, 65.445 40.500 C 65.494 29.842, 65.244 28.020, 63.207 24.205 C 57.957 14.373, 46.897 5.593, 35.217 1.985 C 28.355 -0.134, 17.015 -0.546, 11.267 1.114 M 14.308 9.171 C 12.552 9.768, 10.853 10.940, 10.533 11.775 C 10.212 12.610, 11.406 16.040, 13.185 19.397 C 21.791 35.636, 21.503 34.729, 21.459 45.500 C 21.420 55.032, 21.191 56.085, 16.563 68 C 8.671 88.318, 9.075 98.087, 18.162 106.642 C 28.275 116.163, 49.361 118.755, 57.781 111.512 L 60.491 109.181 54.495 97.527 C 48.550 85.970, 48.501 85.806, 48.598 77.687 C 48.676 71.227, 49.252 68.198, 51.327 63.332 C 56.250 51.784, 57.332 34.410, 53.579 27.153 C 47.365 15.136, 25.801 5.262, 14.308 9.171" stroke="none" fill="#ff0404" fill-rule="evenodd"/><path d="" stroke="none" fill="#fc0404" fill-rule="evenodd"/></svg>