<svg xmlns="http://www.w3.org/2000/svg" width="71" height="123" viewBox="0 0 71 123" version="1.1"><path d="M 33.622 2.250 C 25.513 15.065, -0 59.934, -0 61.381 C -0 62.416, 0.834 64.667, 1.853 66.382 C 2.872 68.097, 10.833 81.607, 19.543 96.404 C 34.066 121.074, 35.496 123.149, 36.773 121.404 C 37.539 120.357, 44.460 108.700, 52.152 95.500 C 59.844 82.300, 67.457 69.333, 69.069 66.684 C 71.598 62.528, 73.258 56.409, 71.335 58.332 C 70.969 58.698, 69.336 56.635, 67.706 53.749 C 60.884 41.668, 35.916 0, 35.499 0 C 35.250 0, 34.405 1.012, 33.622 2.250 M 33.607 15.150 C 32.191 17.172, 32.182 17.522, 33.526 18.275 C 35.162 19.190, 39 18.358, 39 17.088 C 39 16.660, 38.146 15.537, 37.101 14.592 C 35.295 12.957, 35.124 12.985, 33.607 15.150 M 30.055 24.267 C 28.710 24.948, 26.756 26.966, 25.713 28.752 L 23.816 32 35.500 32 L 47.184 32 45.287 28.752 C 42.148 23.378, 35.614 21.454, 30.055 24.267 M 19.043 39.673 C 17.417 41.739, 17.231 42.529, 18.220 43.157 C 19.889 44.216, 51.111 44.216, 52.780 43.157 C 53.769 42.529, 53.583 41.739, 51.957 39.673 L 49.855 37 35.500 37 L 21.145 37 19.043 39.673 M 12.205 51.747 L 9.500 54.495 14.500 55.160 C 20.963 56.019, 51.375 56.164, 56.250 55.358 C 60.261 54.695, 60.978 53.121, 58.429 50.571 C 57.100 49.243, 53.617 49, 35.883 49 L 14.909 49 12.205 51.747 M 0.195 61.500 C 0.215 63.150, 0.439 63.704, 0.693 62.731 C 0.947 61.758, 0.930 60.408, 0.656 59.731 C 0.382 59.054, 0.175 59.850, 0.195 61.500 M 7.564 61.896 C 7.260 62.389, 7.869 63.851, 8.917 65.146 L 10.823 67.500 35.500 67.500 L 60.177 67.500 62.132 65.086 C 63.664 63.194, 63.807 62.494, 62.793 61.851 C 61.028 60.731, 8.258 60.774, 7.564 61.896 M 14 73.433 C 14 73.693, 14.511 75.027, 15.135 76.398 C 16.624 79.664, 22.640 80.450, 40.839 79.756 C 52.410 79.314, 54.544 78.977, 55.689 77.410 C 56.425 76.404, 56.871 75.113, 56.681 74.540 C 56.340 73.515, 14 72.417, 14 73.433 M 21.128 86.750 C 23.520 89.801, 24.274 89.969, 35.500 89.969 C 46.726 89.969, 47.480 89.801, 49.872 86.750 C 51.167 85.099, 50.351 85, 35.500 85 C 20.649 85, 19.833 85.099, 21.128 86.750 M 27.667 95.667 C 26.399 96.934, 27.012 97.955, 29.950 99.474 C 34.161 101.652, 39.577 101.423, 42.036 98.964 C 43.157 97.843, 43.805 96.493, 43.477 95.964 C 42.812 94.887, 28.711 94.622, 27.667 95.667 M 34.180 107.250 C 34.356 108.487, 34.950 109.500, 35.500 109.500 C 36.050 109.500, 36.644 108.487, 36.820 107.250 C 37.039 105.702, 36.628 105, 35.500 105 C 34.372 105, 33.961 105.702, 34.180 107.250" stroke="none" fill="#ff0404" fill-rule="evenodd"/><path d="" stroke="none" fill="#fc0404" fill-rule="evenodd"/></svg>