<svg xmlns="http://www.w3.org/2000/svg" width="71" height="123" viewBox="0 0 71 123" version="1.1"><path d="M 17.745 30.513 C 7.985 47.295, -0 61.402, -0 61.862 C -0 62.829, 23.982 104.996, 30.648 115.750 C 33.120 119.738, 35.534 123, 36.013 123 C 36.492 123, 39.330 118.837, 42.320 113.750 C 50.831 99.269, 67.499 69.940, 69.862 65.290 C 71.911 61.255, 72.732 57.935, 71.334 59.332 C 70.968 59.698, 68.831 56.663, 66.584 52.587 C 57.982 36.978, 36.477 0.012, 35.995 0.006 C 35.718 0.003, 27.505 13.731, 17.745 30.513 M 23 38.760 C 16.125 50.717, 10.532 61.254, 10.571 62.175 C 10.673 64.566, 35.125 107.041, 36.065 106.460 C 36.985 105.891, 57.047 71.204, 59.600 65.768 L 61.353 62.037 58.140 55.807 C 53.074 45.984, 36.553 17.054, 36 17.036 C 35.725 17.027, 29.875 26.803, 23 38.760 M 0.079 61.583 C 0.127 62.748, 0.364 62.985, 0.683 62.188 C 0.972 61.466, 0.936 60.603, 0.604 60.271 C 0.272 59.939, 0.036 60.529, 0.079 61.583" stroke="none" fill="#ff0404" fill-rule="evenodd"/><path d="" stroke="none" fill="#fc0404" fill-rule="evenodd"/></svg>