<svg xmlns="http://www.w3.org/2000/svg" width="69" height="124" viewBox="0 0 69 124" version="1.1"><path d="" stroke="none" fill="#0804fc" fill-rule="evenodd"/><path d="M 25.472 15.250 C 11.930 38.457, 1.002 58.249, 0.370 60.714 C -0.051 62.354, 4.293 70.833, 17.151 93.461 C 26.693 110.254, 34.725 123.995, 35 123.995 C 35.723 123.996, 57.551 85.288, 63.475 73.500 C 66.239 68, 68.838 63.350, 69.250 63.167 C 69.662 62.983, 70 62.226, 70 61.483 C 70 58.937, 36.571 0, 35.127 0 C 34.711 0, 30.366 6.863, 25.472 15.250 M 0.158 62 C 0.158 63.375, 0.385 63.938, 0.662 63.250 C 0.940 62.563, 0.940 61.438, 0.662 60.750 C 0.385 60.063, 0.158 60.625, 0.158 62" stroke="none" fill="#0404fc" fill-rule="evenodd"/></svg>