<svg xmlns="http://www.w3.org/2000/svg" width="71" height="125" viewBox="0 0 71 125" version="1.1"><path d="" stroke="none" fill="#0804fc" fill-rule="evenodd"/><path d="M 17.714 30.991 C 7.971 48.036, 0 62.402, 0 62.916 C 0 63.919, 21.977 103.135, 30.170 116.750 C 32.900 121.287, 35.520 125, 35.992 125 C 37.577 125, 72 64.042, 72 61.234 C 72 60.372, 71.713 59.954, 71.362 60.304 C 71.012 60.655, 67.293 54.768, 63.100 47.221 C 47.778 19.649, 36.487 0.002, 35.964 0.001 C 35.669 0.001, 27.456 13.946, 17.714 30.991 M 22.704 39.845 C 11.139 60.319, 10.014 62.741, 11.019 65 C 11.630 66.375, 17.388 76.843, 23.815 88.262 C 34.152 106.629, 35.650 108.820, 36.797 107.262 C 38.758 104.599, 56.519 73.167, 59.088 67.813 L 61.337 63.127 58.198 56.813 C 54.280 48.932, 37.433 19.017, 36.321 17.967 C 35.870 17.540, 29.742 27.385, 22.704 39.845 M 0.158 63 C 0.158 64.375, 0.385 64.938, 0.662 64.250 C 0.940 63.563, 0.940 62.438, 0.662 61.750 C 0.385 61.063, 0.158 61.625, 0.158 63" stroke="none" fill="#0404fc" fill-rule="evenodd"/></svg>