<svg xmlns="http://www.w3.org/2000/svg" width="68" height="122" viewBox="0 0 68 122" version="1.1"><path d="" stroke="none" fill="#0804fc" fill-rule="evenodd"/><path d="M 8.500 1.162 C 4.273 3.490, 0 8.412, 0.006 10.946 C 0.010 12.351, 2.703 17.963, 5.992 23.418 C 9.281 28.873, 12.262 34.879, 12.615 36.764 C 13.869 43.443, 12.296 52.283, 7.647 64.691 C 0.460 83.871, -0.364 93.594, 4.413 102.831 C 6.629 107.117, 15.509 114.864, 21.263 117.532 C 35.946 124.339, 57.854 123.146, 65.899 115.101 C 69.341 111.659, 68.617 106.885, 62.782 94.539 C 55.974 80.136, 55.473 74.863, 59.878 63.923 C 65.560 49.810, 66.383 33.047, 61.866 23.438 C 56.905 12.884, 45.450 4.049, 33.426 1.502 C 25.292 -0.221, 11.357 -0.411, 8.500 1.162 M 14.699 6.966 C 12.609 7.371, 10.381 8.219, 9.749 8.851 C 8.884 9.716, 12.031 10, 22.500 10 C 37.255 10, 39.591 8.810, 28.426 6.982 C 21.832 5.902, 20.203 5.900, 14.699 6.966 M 10.699 17.666 C 11.481 18.857, 12.880 20.178, 13.810 20.602 C 14.739 21.025, 23.976 21.556, 34.336 21.781 C 53.107 22.189, 53.168 22.183, 52.069 20.129 C 50.409 17.027, 45.196 16.150, 26.389 15.810 L 9.279 15.500 10.699 17.666 M 19.750 28.689 C 17.682 29.230, 17.684 29.213, 19.122 32.368 C 19.739 33.722, 21.201 35.087, 22.372 35.402 C 23.542 35.716, 31.813 35.979, 40.750 35.986 L 57 36 57 32 L 57 28 39.250 28.116 C 29.488 28.180, 20.712 28.438, 19.750 28.689 M 21 45.500 L 21 49 39 49 L 57 49 57 45.500 L 57 42 39 42 L 21 42 21 45.500 M 18.449 57.468 C 17.652 59.375, 17 61.175, 17 61.468 C 17 61.761, 24.650 62, 34 62 C 49.667 62, 51.157 61.843, 53 60 C 55.627 57.373, 55.534 55.376, 52.750 54.630 C 51.513 54.299, 43.615 54.021, 35.199 54.014 L 19.898 54 18.449 57.468 M 14.762 69.060 C 11.985 70.699, 10.523 74.083, 12.147 75.112 C 13.794 76.156, 46.035 76.267, 47.648 75.235 C 48.279 74.831, 48.954 73.150, 49.148 71.500 L 49.500 68.500 33 68.267 C 23.083 68.127, 15.807 68.444, 14.762 69.060 M 9 86 L 9 90 30.500 90 C 42.325 90, 51.998 89.662, 51.996 89.250 C 51.994 88.838, 51.101 87.037, 50.011 85.250 L 48.029 82 28.515 82 L 9 82 9 86 M 11 100 L 13.041 104 36.579 104 C 55.129 104, 59.965 103.735, 59.395 102.750 C 58.997 102.063, 57.815 100.263, 56.768 98.750 L 54.864 96 31.912 96 L 8.959 96 11 100 M 23.442 110.906 C 24.540 112.684, 33.621 115.149, 41 115.674 C 47.159 116.113, 49.528 115.819, 54.250 114.032 C 57.413 112.835, 60 111.439, 60 110.928 C 60 110.391, 52.189 110, 41.441 110 C 30.601 110, 23.115 110.377, 23.442 110.906" stroke="none" fill="#0404fc" fill-rule="evenodd"/></svg>