<svg xmlns="http://www.w3.org/2000/svg" width="71" height="125" viewBox="0 0 71 125" version="1.1"><path d="" stroke="none" fill="#0804fc" fill-rule="evenodd"/><path d="M 29.688 9.145 C 12.112 39.031, 0 60.725, 0 62.320 C -0 63.323, 1.072 66.024, 2.383 68.322 C 21.893 102.525, 35.400 124.996, 36.048 124.329 C 36.492 123.873, 43.457 112.025, 51.525 98 C 59.594 83.975, 67.502 70.333, 69.098 67.684 C 71.917 63.005, 73.022 58.250, 71 59.500 C 70.450 59.840, 70 59.715, 70 59.222 C 70 58.256, 37.407 2.064, 36.023 0.645 C 35.565 0.174, 32.714 3.999, 29.688 9.145 M 33.665 15.068 C 31.296 18.450, 31.552 19, 35.500 19 C 39.463 19, 39.792 18.200, 37.165 14.956 L 35.331 12.690 33.665 15.068 M 27.362 26.706 C 26.404 28.242, 25.200 30.063, 24.688 30.750 C 23.955 31.732, 26.252 32, 35.392 32 L 47.029 32 44.660 28.250 C 42.357 24.603, 42.110 24.492, 35.698 24.206 C 29.422 23.925, 29.021 24.045, 27.362 26.706 M 22.239 37.707 C 20.995 37.946, 19.330 39.395, 18.538 40.927 L 17.098 43.712 26.299 44.253 C 31.359 44.550, 39.642 44.554, 44.705 44.261 L 53.911 43.728 52.499 40.998 C 51.580 39.222, 49.979 38.046, 47.918 37.634 C 44.484 36.947, 25.916 37, 22.239 37.707 M 19.282 49.666 C 15.097 50.016, 13.644 50.636, 11.937 52.801 L 9.810 55.500 17.655 56.298 C 26.189 57.167, 58.581 56.752, 59.572 55.761 C 60.601 54.732, 59.026 51.225, 57.212 50.507 C 55.141 49.688, 26.590 49.055, 19.282 49.666 M 0.195 62.500 C 0.215 64.150, 0.439 64.704, 0.693 63.731 C 0.947 62.758, 0.930 61.408, 0.656 60.731 C 0.382 60.054, 0.175 60.850, 0.195 62.500 M 7.564 62.896 C 7.260 63.389, 7.869 64.851, 8.917 66.146 L 10.823 68.500 35.500 68.500 L 60.177 68.500 62.132 66.086 C 63.664 64.194, 63.807 63.494, 62.793 62.851 C 61.028 61.731, 8.258 61.774, 7.564 62.896 M 14 74.566 C 14 75.655, 16.310 79.507, 17.400 80.235 C 19.002 81.304, 50.433 81.166, 53.299 80.077 C 56.193 78.976, 57.606 76.002, 55.784 74.845 C 54.356 73.939, 14 73.669, 14 74.566 M 21.026 88.048 C 22.632 91.049, 26.116 92, 35.500 92 C 44.884 92, 48.368 91.049, 49.974 88.048 C 51.057 86.025, 50.882 86, 35.500 86 C 20.118 86, 19.943 86.025, 21.026 88.048 M 27 97.845 C 27 100.068, 31.440 102.500, 35.500 102.500 C 39.560 102.500, 44 100.068, 44 97.845 C 44 97.380, 40.175 97, 35.500 97 C 30.825 97, 27 97.380, 27 97.845 M 34 108.500 C 34 110.056, 34.567 111, 35.500 111 C 36.433 111, 37 110.056, 37 108.500 C 37 106.944, 36.433 106, 35.500 106 C 34.567 106, 34 106.944, 34 108.500" stroke="none" fill="#0404fc" fill-rule="evenodd"/></svg>