<svg xmlns="http://www.w3.org/2000/svg" width="70" height="123" viewBox="0 0 70 123" version="1.1"><path d="" stroke="none" fill="#0804fc" fill-rule="evenodd"/><path d="M 11.267 1.114 C 9.488 1.628, 6.226 3.768, 4.017 5.869 C -1.552 11.167, -1.419 14.277, 4.789 24 C 7.423 28.125, 10.180 32.969, 10.917 34.765 C 13.078 40.037, 11.832 51.951, 8.017 62.500 C 1.922 79.350, 0.846 83.992, 1.275 91.567 C 2.417 111.702, 20.238 123.917, 46.881 122.829 C 54.385 122.523, 57.566 121.919, 61.348 120.082 C 70.364 115.702, 72.382 108.127, 66.846 99.446 C 61.543 91.131, 57.689 82.004, 57.628 77.615 C 57.595 75.246, 58.907 70.084, 60.722 65.447 C 66.708 50.149, 67.694 32.838, 63.088 23.889 C 58.340 14.663, 46.735 5.543, 35.217 1.985 C 28.355 -0.134, 17.015 -0.546, 11.267 1.114 M 14.203 9.131 C 12.390 9.654, 10.674 10.686, 10.390 11.425 C 10.107 12.164, 12.461 17.812, 15.621 23.977 C 20.965 34.397, 21.398 35.757, 21.788 43.342 C 22.232 51.987, 22.640 50.358, 14.248 73.500 C 10.711 83.256, 10.123 93.373, 12.793 98.556 C 15.652 104.105, 20.518 108.439, 27.500 111.655 C 32.652 114.028, 34.773 114.417, 42.500 114.409 C 51.853 114.399, 58.528 112.394, 59.742 109.231 C 60.048 108.432, 57.648 102.765, 54.408 96.639 L 48.518 85.500 48.593 77 C 48.654 70.207, 49.185 67.295, 51.240 62.500 C 55.848 51.744, 57.307 37.409, 54.573 29.748 C 51.581 21.363, 42.822 13.982, 31.228 10.077 C 24.674 7.869, 19.565 7.585, 14.203 9.131" stroke="none" fill="#0404fc" fill-rule="evenodd"/></svg>