<svg xmlns="http://www.w3.org/2000/svg" width="70" height="123" viewBox="0 0 70 123" version="1.1"><path d="" stroke="none" fill="#047c04" fill-rule="evenodd"/><path d="M 17.547 29.156 C 8.261 45.192, 0.468 59.331, 0.230 60.576 C -0.193 62.789, 1.738 66.357, 26.553 109.231 C 30.924 116.784, 34.731 122.971, 35.014 122.981 C 35.296 122.992, 42.449 110.963, 50.909 96.250 C 59.368 81.537, 67.350 67.822, 68.645 65.771 C 70.706 62.509, 72.069 56.597, 70.369 58.298 C 70.022 58.645, 63.812 48.707, 56.569 36.214 C 37.148 2.717, 35.551 0.040, 34.966 0.019 C 34.672 0.009, 26.833 13.120, 17.547 29.156 M 33.054 14.899 C 31.686 17.455, 32.419 19, 35 19 C 37.891 19, 38.464 17.019, 36.222 14.777 L 34.201 12.756 33.054 14.899 M 29.729 23.841 C 28.215 24.439, 24 30.093, 24 31.524 C 24 31.786, 28.950 32, 35 32 C 41.050 32, 46 31.716, 46 31.368 C 46 29.501, 41.667 24.144, 39.739 23.627 C 36.835 22.849, 31.975 22.953, 29.729 23.841 M 20.400 37.765 C 18.794 38.838, 16.966 42.633, 17.702 43.369 C 18.527 44.193, 51.473 44.193, 52.298 43.369 C 53.034 42.633, 51.206 38.838, 49.600 37.765 C 48.166 36.807, 21.834 36.807, 20.400 37.765 M 12.205 51.747 L 9.500 54.495 14.500 55.160 C 20.967 56.020, 50.380 56.163, 55.250 55.358 C 57.995 54.904, 59 54.247, 59 52.904 C 59 49.543, 55.666 49, 35.020 49 L 14.909 49 12.205 51.747 M 0.195 61.500 C 0.215 63.150, 0.439 63.704, 0.693 62.731 C 0.947 61.758, 0.930 60.408, 0.656 59.731 C 0.382 59.054, 0.175 59.850, 0.195 61.500 M 7.564 61.896 C 7.260 62.389, 7.869 63.851, 8.917 65.146 L 10.823 67.500 34.884 67.500 C 58.607 67.500, 58.976 67.468, 61.222 65.217 C 63.170 63.265, 63.283 62.796, 62 61.982 C 60.087 60.768, 8.312 60.686, 7.564 61.896 M 14 74.289 C 14 75.020, 14.639 76.491, 15.421 77.559 C 16.737 79.357, 18.180 79.500, 35.002 79.500 C 51.884 79.500, 53.263 79.362, 54.595 77.540 C 55.382 76.463, 55.871 75.113, 55.681 74.540 C 55.460 73.876, 47.857 73.402, 34.667 73.230 C 18.008 73.012, 14 73.217, 14 74.289 M 21.250 87.250 C 22.664 89.380, 23.399 89.500, 35 89.500 C 46.601 89.500, 47.336 89.380, 48.750 87.250 L 50.244 85 35 85 L 19.756 85 21.250 87.250 M 27.400 96.162 C 26.229 98.056, 30.854 101, 35 101 C 39.146 101, 43.771 98.056, 42.600 96.162 C 42.167 95.461, 39.149 95, 35 95 C 30.851 95, 27.833 95.461, 27.400 96.162 M 33.190 106.750 C 33.376 107.713, 34.190 108.500, 35 108.500 C 35.810 108.500, 36.624 107.713, 36.810 106.750 C 37.046 105.522, 36.506 105, 35 105 C 33.494 105, 32.954 105.522, 33.190 106.750" stroke="none" fill="#048404" fill-rule="evenodd"/></svg>