<svg xmlns="http://www.w3.org/2000/svg" width="69" height="123" viewBox="0 0 69 123" version="1.1"><path d="" stroke="none" fill="#047c04" fill-rule="evenodd"/><path d="M 24.298 17.236 C 4.151 51.603, -0.264 59.881, 0.333 62.165 C 0.979 64.636, 34.232 122.968, 35 122.979 C 35.625 122.987, 60.290 79.449, 66.068 68.137 C 69.886 60.663, 70.197 59.547, 68.997 57.637 C 68.258 56.462, 63.742 48.525, 58.961 40 C 45.075 15.236, 36.401 0.634, 35.373 0.291 C 34.848 0.116, 29.864 7.741, 24.298 17.236 M 0.158 61 C 0.158 62.375, 0.385 62.938, 0.662 62.250 C 0.940 61.563, 0.940 60.438, 0.662 59.750 C 0.385 59.063, 0.158 59.625, 0.158 61" stroke="none" fill="#048404" fill-rule="evenodd"/></svg>