<svg xmlns="http://www.w3.org/2000/svg" width="72" height="124" viewBox="0 0 72 124" version="1.1"><path d="" stroke="none" fill="#047c04" fill-rule="evenodd"/><path d="M 29.171 11.750 C 7.702 48.283, 1 59.836, 0.455 61.256 C -0.346 63.344, 34.257 123.969, 36.262 123.991 C 37.384 124.004, 42.139 116.287, 57.476 89.563 C 73.471 61.692, 73.770 61.101, 72.321 60.178 C 71.736 59.805, 65.966 50.275, 59.501 39 C 43.334 10.807, 36.955 0, 36.480 0 C 36.258 0, 32.969 5.287, 29.171 11.750 M 23.031 39.635 L 9.829 62.269 12.609 67.385 C 17.200 75.832, 35.067 106.440, 35.903 107.290 C 36.599 107.997, 54.425 78.260, 60.006 67.083 C 62.137 62.815, 62.154 62.545, 60.505 59.083 C 58.442 54.750, 36.927 17, 36.521 17 C 36.363 17, 30.293 27.186, 23.031 39.635 M 0.079 62.583 C 0.127 63.748, 0.364 63.985, 0.683 63.188 C 0.972 62.466, 0.936 61.603, 0.604 61.271 C 0.272 60.939, 0.036 61.529, 0.079 62.583" stroke="none" fill="#048404" fill-rule="evenodd"/></svg>