<svg xmlns="http://www.w3.org/2000/svg" width="68" height="121" viewBox="0 0 68 121" version="1.1"><path d="" stroke="none" fill="#047c04" fill-rule="evenodd"/><path d="M 21.813 1.867 C 13.399 5.263, 10.141 7.960, 5.006 15.781 L 0 23.407 -0 60.660 L -0 97.912 3.091 103.206 C 10.306 115.566, 17.741 120.142, 31.677 120.799 C 42.489 121.309, 49.997 119.403, 56.423 114.518 C 61.099 110.963, 66.993 101.796, 67.015 98.044 C 67.027 96.034, 67.234 95.815, 68 97 C 68.635 97.983, 68.973 85.402, 68.981 60.500 C 68.992 24.046, 68.910 22.364, 66.960 19.166 C 63.437 13.387, 55.188 5.976, 49.236 3.242 C 41.527 -0.299, 28.767 -0.939, 21.813 1.867 M 24.108 7.950 C 14.003 11.700, 15.183 12.110, 35.109 11.775 L 51.500 11.500 47 9.100 C 40.723 5.753, 31.304 5.280, 24.108 7.950 M 9 21 L 6.959 25 33.980 25 C 48.841 25, 61 24.790, 61 24.534 C 61 24.278, 60.242 22.478, 59.315 20.534 L 57.630 17 34.335 17 L 11.041 17 9 21 M 0.454 61 C 0.454 82.175, 0.587 90.838, 0.749 80.250 C 0.911 69.663, 0.911 52.338, 0.749 41.750 C 0.587 31.163, 0.454 39.825, 0.454 61 M 7 35.500 L 7 40 34 40 L 61 40 61 35.500 L 61 31 34 31 L 7 31 7 35.500 M 7 49 L 7 53 34 53 L 61 53 61 49 L 61 45 34 45 L 7 45 7 49 M 7 62 L 7 66 34 66 L 61 66 61 62 L 61 58 34 58 L 7 58 7 62 M 7 76 L 7 80 34 80 L 61 80 61 76 L 61 72 34 72 L 7 72 7 76 M 7 89 L 7 93 34 93 L 61 93 61 89 L 61 85 34 85 L 7 85 7 89 M 8 98.632 C 8 98.980, 8.942 100.788, 10.093 102.651 L 12.186 106.038 34.235 105.769 L 56.284 105.500 58.657 101.750 L 61.029 98 34.515 98 C 19.932 98, 8 98.284, 8 98.632 M 21.184 111.865 C 19.641 112.844, 29.897 116, 34.621 116 C 37.477 116, 50 112.261, 50 111.408 C 50 110.609, 22.476 111.046, 21.184 111.865" stroke="none" fill="#048404" fill-rule="evenodd"/></svg>