<svg xmlns="http://www.w3.org/2000/svg" width="68" height="122" viewBox="0 0 68 122" version="1.1"><path d="" stroke="none" fill="#047c04" fill-rule="evenodd"/><path d="M 7.684 1.449 C -1.668 4.784, -2.175 8.794, 5.142 21.542 C 14.874 38.499, 15.164 43.626, 7.540 63.978 C 1.664 79.664, -0.330 88.073, 0.562 93.415 C 3.456 110.747, 20.174 122, 43.029 122 C 57.787 122, 67.984 117.236, 68.011 110.327 C 68.017 108.772, 65.242 102.010, 61.845 95.300 C 54.252 80.305, 53.800 75.780, 58.771 64.497 C 64.373 51.780, 65.466 35.139, 61.452 23.680 C 58.214 14.434, 45.945 5.198, 31.955 1.475 C 25.144 -0.337, 12.729 -0.351, 7.684 1.449" stroke="none" fill="#048404" fill-rule="evenodd"/></svg>