<svg xmlns="http://www.w3.org/2000/svg" width="67" height="121" viewBox="0 0 67 121" version="1.1"><path d="" stroke="none" fill="#047c04" fill-rule="evenodd"/><path d="M 20.302 2.103 C 14.081 4.494, 6.150 11.362, 2.586 17.443 L 0 21.856 0 60.732 L 0 99.608 2.832 104.054 C 6.603 109.974, 13.066 115.656, 19.360 118.587 C 26.220 121.781, 38.380 121.952, 46.360 118.967 C 53.022 116.474, 59.976 110.505, 64.554 103.348 L 68 97.961 67.864 58.731 C 67.789 37.154, 67.532 20.520, 67.292 21.766 C 66.933 23.633, 66.321 22.961, 63.819 17.953 C 56.431 3.168, 36.455 -4.108, 20.302 2.103 M 25.500 9.227 C 20.912 10.863, 14.395 15.638, 11.816 19.252 C 9.518 22.475, 9.498 22.770, 9.187 57 C 9.015 75.975, 9.160 93.448, 9.510 95.828 C 10.264 100.961, 15.261 107.028, 21.432 110.305 C 24.621 111.999, 27.246 112.469, 33.578 112.483 C 40.838 112.498, 42.143 112.196, 46.452 109.500 C 49.090 107.850, 52.621 104.590, 54.299 102.255 C 57.152 98.286, 57.409 97.180, 58.257 85.255 C 59.448 68.484, 58.609 28.623, 56.967 24 C 54.876 18.112, 51.311 14.312, 44.854 11.085 C 38.238 7.779, 31.404 7.123, 25.500 9.227 M 0.456 60.500 C 0.456 82.500, 0.588 91.358, 0.749 80.183 C 0.910 69.009, 0.910 51.009, 0.749 40.183 C 0.587 29.358, 0.455 38.500, 0.456 60.500" stroke="none" fill="#048404" fill-rule="evenodd"/></svg>