<svg xmlns="http://www.w3.org/2000/svg" width="69" height="122" viewBox="0 0 69 122" version="1.1"><path d="" stroke="none" fill="#047c04" fill-rule="evenodd"/><path d="M 9.459 1.880 C 4.162 4.285, -0 9.279, 0 13.227 C 0 15.193, 1.750 19.039, 4.855 23.900 C 7.526 28.080, 10.282 33.251, 10.980 35.391 C 12.858 41.152, 11.732 51.125, 8.033 61.500 C 2.776 76.248, 1 83.183, 0.995 88.997 C 0.977 108.569, 18.158 122, 43.213 122 C 54.010 122, 60.992 119.941, 65.508 115.426 C 70.232 110.701, 70.336 105.486, 65.846 98.446 C 64.111 95.726, 61.369 90.689, 59.753 87.253 C 56.064 79.410, 56.316 74.238, 61.011 61.500 C 64.051 53.252, 64.335 51.498, 64.414 40.500 C 64.488 30.130, 64.201 27.852, 62.298 23.732 C 58.045 14.520, 44.973 4.676, 32.632 1.390 C 25.222 -0.583, 14.375 -0.354, 9.459 1.880 M 13.141 9.474 C 10.192 10.810, 9.865 11.325, 10.460 13.697 C 10.833 15.184, 12.690 19.047, 14.587 22.283 C 23.612 37.683, 23.979 46.282, 16.453 66 C 12.473 76.427, 11.608 79.909, 11.238 87 C 10.805 95.307, 10.871 95.613, 14.147 100.494 C 20.694 110.245, 35.112 115.634, 48.161 113.207 C 54.789 111.975, 59 109.764, 59 107.516 C 59 106.726, 56.525 101.338, 53.500 95.544 C 48.105 85.211, 48.001 84.852, 48.044 76.755 C 48.068 72.215, 48.704 66.925, 49.457 65 C 53.564 54.505, 54.238 51.672, 54.740 42.772 C 55.431 30.513, 53.946 26.093, 46.926 19.528 C 37.151 10.384, 21.448 5.711, 13.141 9.474" stroke="none" fill="#048404" fill-rule="evenodd"/></svg>