<svg xmlns="http://www.w3.org/2000/svg" width="68" height="121" viewBox="0 0 68 121" version="1.1"><path d="" stroke="none" fill="#047c04" fill-rule="evenodd"/><path d="M 8.500 1.162 C 4.257 3.498, 0 8.412, 0 10.972 C 0 12.391, 2.095 16.915, 4.656 21.026 C 11.583 32.143, 12.953 35.703, 12.978 42.636 C 12.999 48.600, 10.365 58.316, 5.909 68.711 C 3.033 75.422, 0.777 87.914, 1.527 92.977 C 3.405 105.648, 15.776 116.736, 31.732 120.048 C 39.824 121.728, 53.409 120.854, 59.149 118.284 C 69.959 113.443, 70.469 109.595, 62.500 93 C 55.964 79.389, 55.442 74.381, 59.530 64.500 C 65.508 50.049, 66.490 32.807, 61.880 23.220 C 59.082 17.402, 49.883 8.001, 44.099 5.050 C 35.540 0.684, 13.700 -1.701, 8.500 1.162 M 14.699 6.966 C 12.609 7.371, 10.381 8.219, 9.749 8.851 C 8.884 9.716, 12.031 10, 22.500 10 C 37.007 10, 39.310 8.955, 29.078 7.015 C 23.138 5.888, 20.315 5.879, 14.699 6.966 M 10.733 17.497 C 11.705 18.827, 13.175 20.216, 14 20.585 C 16.534 21.716, 53 22.372, 53 21.286 C 53 19.133, 49.009 16.914, 44.387 16.498 C 41.699 16.256, 32.630 15.837, 24.233 15.568 L 8.965 15.078 10.733 17.497 M 18.513 28.979 C 17.547 30.542, 19.897 34.010, 22.626 35.048 C 24.003 35.572, 32.301 36, 41.065 36 L 57 36 57 32 L 57 28 38.059 28 C 26.777 28, 18.873 28.396, 18.513 28.979 M 21 44.500 L 21 48 39 48 L 57 48 57 44.500 L 57 41 39 41 L 21 41 21 44.500 M 18.209 57.299 C 17.544 59.138, 17 60.985, 17 61.404 C 17 61.822, 24.912 62.016, 34.582 61.833 C 50.741 61.527, 52.281 61.340, 53.611 59.519 C 54.407 58.430, 54.927 56.855, 54.766 56.019 C 54.521 54.742, 51.686 54.457, 36.946 54.228 L 19.418 53.956 18.209 57.299 M 17.733 67.669 C 13.460 68.184, 9.808 72.208, 11.803 74.203 C 13.214 75.614, 35.733 76.424, 42.929 75.323 C 47.810 74.577, 48.438 74.195, 49.146 71.547 C 49.579 69.926, 49.717 68.384, 49.452 68.118 C 48.804 67.470, 22.482 67.098, 17.733 67.669 M 9 85 L 9 89 30.500 89 C 42.325 89, 52 88.753, 52 88.450 C 52 86.468, 48.698 82.152, 46.790 81.641 C 45.531 81.303, 36.513 81.021, 26.750 81.014 L 9 81 9 85 M 11 99 L 13.041 103 36.579 103 C 55.129 103, 59.965 102.735, 59.395 101.750 C 58.997 101.063, 57.815 99.263, 56.768 97.750 L 54.864 95 31.912 95 L 8.959 95 11 99 M 23.483 109.973 C 24.597 111.775, 37.162 115, 43.068 115 C 49.011 115, 60 111.708, 60 109.928 C 60 109.391, 52.189 109, 41.441 109 C 29.668 109, 23.102 109.356, 23.483 109.973" stroke="none" fill="#048404" fill-rule="evenodd"/></svg>